<?xml version="1.0" encoding="UTF-8"?>
<svg version="1.1" xmlns="http://www.w3.org/2000/svg" width="512" height="512">
<path d="M0 0 C31.02 0 62.04 0 94 0 C94.86419223 2.59257669 95.17580932 4.34037707 95.31640625 7.01171875 C95.35830078 7.76904297 95.40019531 8.52636719 95.44335938 9.30664062 C95.48267578 10.09232422 95.52199219 10.87800781 95.5625 11.6875 C95.60568359 12.48478516 95.64886719 13.28207031 95.69335938 14.10351562 C95.79927368 16.06881447 95.90012551 18.03438496 96 20 C91.56365291 21.0051621 87.12574342 22.00324731 82.6875 23 C81.42486328 23.28617188 80.16222656 23.57234375 78.86132812 23.8671875 C77.65283203 24.13789063 76.44433594 24.40859375 75.19921875 24.6875 C74.08377686 24.93886719 72.96833496 25.19023437 71.8190918 25.44921875 C69 26 69 26 66 26 C66 70.22 66 114.44 66 160 C68.97 160.33 71.94 160.66 75 161 C76.83273974 161.3557466 78.65945721 161.74665932 80.47265625 162.19140625 C81.39111328 162.41376953 82.30957031 162.63613281 83.25585938 162.86523438 C84.18205078 163.09533203 85.10824219 163.32542969 86.0625 163.5625 C87.02349609 163.79646484 87.98449219 164.03042969 88.97460938 164.27148438 C91.31767482 164.84267943 93.65936918 165.41892423 96 166 C95.85919445 168.77117304 95.71256882 171.54182641 95.5625 174.3125 C95.52318359 175.09818359 95.48386719 175.88386719 95.44335938 176.69335938 C95.40146484 177.45068359 95.35957031 178.20800781 95.31640625 178.98828125 C95.27974854 179.68477783 95.24309082 180.38127441 95.20532227 181.09887695 C95 183 95 183 94 186 C62.98 186 31.96 186 0 186 C-0.86419223 183.40742331 -1.17580932 181.65962293 -1.31640625 178.98828125 C-1.35830078 178.23095703 -1.40019531 177.47363281 -1.44335938 176.69335938 C-1.48267578 175.90767578 -1.52199219 175.12199219 -1.5625 174.3125 C-1.60568359 173.51521484 -1.64886719 172.71792969 -1.69335938 171.89648438 C-1.79927368 169.93118553 -1.90012551 167.96561504 -2 166 C2.24833355 164.99282887 6.49891924 163.99550625 10.75 163 C11.9565625 162.71382812 13.163125 162.42765625 14.40625 162.1328125 C15.56640625 161.86210937 16.7265625 161.59140625 17.921875 161.3125 C19.52434082 160.93544922 19.52434082 160.93544922 21.15917969 160.55078125 C24 160 24 160 28 160 C28 115.78 28 71.56 28 26 C22.06 25.01 22.06 25.01 16 24 C12.7401424 23.31712463 9.49482561 22.61998547 6.25 21.875 C5.445625 21.69324219 4.64125 21.51148438 3.8125 21.32421875 C1.87431722 20.88582026 -0.06294834 20.4433696 -2 20 C-1.85919445 17.22882696 -1.71256882 14.45817359 -1.5625 11.6875 C-1.52318359 10.90181641 -1.48386719 10.11613281 -1.44335938 9.30664062 C-1.40146484 8.54931641 -1.35957031 7.79199219 -1.31640625 7.01171875 C-1.27974854 6.31522217 -1.24309082 5.61872559 -1.20532227 4.90112305 C-1 3 -1 3 0 0 Z " fill="#FFFFFF" transform="translate(209,163)"/>
<path d="M0 0 C7.3019489 1.60776856 14.23570749 4.10347736 21.1875 6.8125 C22.03022461 7.13154297 22.87294922 7.45058594 23.74121094 7.77929688 C31.87202397 11.01375918 38.12558835 15.33610027 43.5 22.3125 C46.36871037 25.94421797 49.2560225 29.5238948 52.3125 33 C53.23482422 34.051875 53.23482422 34.051875 54.17578125 35.125 C55.99276469 36.99256328 57.87484829 38.49878908 60 40 C58.63271657 45.64004416 54.47468683 48.6912527 50 52 C36.41562995 60.21144757 21.76652903 60.23610699 6.68212891 56.71630859 C-2.42444524 54.28424155 -11.32065842 51.01695907 -20.20776367 47.89208984 C-22.79797567 47.06454463 -25.32486293 46.47282061 -28 46 C-26.51113415 42.25992313 -26.51113415 42.25992313 -24.2668457 41.11865234 C-23.2317688 40.8549585 -23.2317688 40.8549585 -22.17578125 40.5859375 C-21.40234375 40.38315186 -20.62890625 40.18036621 -19.83203125 39.97143555 C-19.00058594 39.77461182 -18.16914063 39.57778809 -17.3125 39.375 C-16.45398438 39.16335205 -15.59546875 38.9517041 -14.7109375 38.73364258 C-3.88006468 36.1456192 6.74755927 34.85082346 17.875 34.75 C19.03418945 34.7358606 19.03418945 34.7358606 20.21679688 34.72143555 C25.6936617 34.75258081 30.70513397 35.62255041 36 37 C35.40574219 36.5875 34.81148437 36.175 34.19921875 35.75 C32.43512031 34.52089253 30.67504614 33.28599869 28.91796875 32.046875 C27.03686615 30.72733315 25.14431329 29.42389409 23.23828125 28.140625 C13.63369837 21.50921542 5.54076829 13.34276748 0 3 C0 2.01 0 1.02 0 0 Z " fill="#FFFFFF" transform="translate(193,419)"/>
<path d="M0 0 C-0.83592125 6.05249308 -4.16822837 9.4404888 -8 14 C-8.62390625 14.77085937 -9.2478125 15.54171875 -9.890625 16.3359375 C-14.65026927 22.0049447 -19.83299765 25.96559876 -26 30 C-27.87909126 31.30663586 -29.75423033 32.61897731 -31.625 33.9375 C-33.08333333 34.95833333 -34.54166667 35.97916667 -36 37 C-35.45255127 36.85925049 -34.90510254 36.71850098 -34.34106445 36.57348633 C-28.8852947 35.2538891 -23.79382758 34.64671362 -18.1875 34.6875 C-16.97187378 34.69378418 -16.97187378 34.69378418 -15.73168945 34.70019531 C-2.31873653 34.94217162 13.66639511 36.39895925 26 42 C27.3671875 44.12890625 27.3671875 44.12890625 28 46 C27.23300781 46.20753906 26.46601563 46.41507812 25.67578125 46.62890625 C19.09342329 48.45606485 12.61842703 50.44984695 6.16186523 52.68505859 C-11.60631554 58.81531184 -28.54227157 62.32364628 -46.1875 53.875 C-52.05410961 50.94523736 -56.26670252 47.40345688 -60 42 C-58.36757135 38.28563336 -56.19228392 36.46699912 -53.06640625 33.90234375 C-48.34300144 29.55395407 -44.44646417 24.25740912 -40.59765625 19.1328125 C-34.6249248 11.37027264 -25.6035067 8.45781828 -16.6875 5.25 C-15.60404297 4.85167969 -14.52058594 4.45335937 -13.40429688 4.04296875 C-2.37864142 0 -2.37864142 0 0 0 Z " fill="#FFFFFF" transform="translate(319,419)"/>
<path d="M0 0 C0.69101807 0.15758789 1.38203613 0.31517578 2.09399414 0.47753906 C6.3018331 1.51098887 9.94977443 2.99125905 13.75 5.0625 C3.34959929 11.99610047 -15.91661547 14.99648327 -28.25 13.0625 C-31.84798951 12.15033365 -34.9443869 10.73616946 -38.25 9.0625 C-39.6046809 8.41371695 -40.96022384 7.76673223 -42.31640625 7.12109375 C-43.77453824 6.41633539 -45.23156792 5.70929192 -46.6875 5 C-47.73623291 4.48953125 -47.73623291 4.48953125 -48.80615234 3.96875 C-52.10818679 2.3133043 -54.73877198 0.76172419 -57.25 -1.9375 C-42.47190522 -9.32654739 -15.36951692 -3.52319458 0 0 Z " fill="#FFFFFF" transform="translate(175.25,442.9375)"/>
<path d="M0 0 C0.99 0.99 0.99 0.99 2 2 C-4.30132746 5.39615739 -10.63419445 8.72631316 -17 12 C-18.48306641 12.76957031 -18.48306641 12.76957031 -19.99609375 13.5546875 C-31.50216243 18.87115094 -44.20711746 15.6978641 -55.875 12.5 C-57.14730469 12.16613281 -58.41960937 11.83226562 -59.73046875 11.48828125 C-62.8246987 10.67401021 -65.91391583 9.84451794 -69 9 C-53.77572914 -3.0987583 -18.36318266 -4.34486018 0 0 Z " fill="#FFFFFF" transform="translate(392,440)"/>
<path d="M0 0 C0.33 0 0.66 0 1 0 C1.59503964 42.00522143 1.59503964 42.00522143 -8.375 52.5 C-9.24125 53.325 -10.1075 54.15 -11 55 C-13.36893737 57.6359992 -15.68756896 60.31438124 -18 63 C-20 61 -20 61 -20.25 57.25 C-19.82811957 41.69005694 -15.84464915 27.26115055 -9 13.375 C-8.52022705 12.39877686 -8.52022705 12.39877686 -8.03076172 11.40283203 C-5.81639709 7.10475364 -3.25882155 3.57809798 0 0 Z " fill="#FFFFFF" transform="translate(492,228)"/>
<path d="M0 0 C14.82752038 14.25242263 20.67771116 36.89642634 21.1875 56.9375 C21.23046875 59.15234375 21.23046875 59.15234375 21 61 C20.34 61.66 19.68 62.32 19 63 C-0.11056396 42.27565508 -0.39182969 27.66016239 0 0 Z " fill="#FFFFFF" transform="translate(19,228)"/>
<path d="M0 0 C19.64050257 8.10756003 32.72974042 17.64706723 44.79492188 35.25488281 C46.82621564 38.19647273 48.91594771 41.09562925 51 44 C50.505 44.99 50.505 44.99 50 46 C29.57621256 38.9632329 11.67947615 25.65521574 1.0390625 6.5234375 C0 4 0 4 0 0 Z " fill="#FFFFFF" transform="translate(150,400)"/>
<path d="M0 0 C0.96714727 2.55187051 1.13918757 3.6550569 0.1015625 6.2265625 C-3.96129354 12.82601648 -8.65237331 18.40541364 -14 24 C-14.52980469 24.60457031 -15.05960937 25.20914062 -15.60546875 25.83203125 C-24.814409 35.94055949 -37.05345856 42.20979526 -50 46 C-48.72289077 42.51134865 -47.24314035 39.67236111 -45.05859375 36.671875 C-44.19041016 35.47848511 -44.19041016 35.47848511 -43.3046875 34.26098633 C-30.87744131 17.54887505 -19.20488968 8.1522797 0 0 Z " fill="#FFFFFF" transform="translate(361,400)"/>
<path d="M0 0 C2.54502467 8.5544746 -0.81308783 20.64988652 -4.9375 28.3125 C-5.92778356 29.89453837 -6.94394041 31.46108964 -8 33 C-8.598125 33.94875 -9.19625 34.8975 -9.8125 35.875 C-12.44003317 38.4274608 -15.18434144 39.85742777 -18.421875 41.53515625 C-22.37895623 43.78349786 -25.91417078 46.56037353 -29.51953125 49.328125 C-31.79299829 50.86047759 -33.32585457 51.57612613 -36 52 C-31.79792364 31.90731302 -16.71785057 14.50688818 -2 1 C-1.34 0.67 -0.68 0.34 0 0 Z " fill="#FFFFFF" transform="translate(490,281)"/>
<path d="M0 0 C17.09558747 9.35594878 28.59747734 29.64167814 36 47 C36.7109375 49.95703125 36.7109375 49.95703125 37 52 C31.50863117 50.57190408 27.78554826 47.9001637 23.375 44.5 C22.07240266 43.50766699 20.76777531 42.51799191 19.4609375 41.53125 C18.89165527 41.09361328 18.32237305 40.65597656 17.73583984 40.20507812 C15.9977158 38.93102273 15.9977158 38.93102273 13.8972168 37.98681641 C11.12409133 36.54440576 10.07494494 34.50516883 8.4375 31.875 C7.85871094 30.96492188 7.27992187 30.05484375 6.68359375 29.1171875 C3.02965255 22.3518857 1.49010799 16.13396887 0.8125 8.5 C0.73064453 7.67757813 0.64878906 6.85515625 0.56445312 6.0078125 C0.36661362 4.00614225 0.18191276 2.00318047 0 0 Z " fill="#FFFFFF" transform="translate(21,281)"/>
<path d="M0 0 C-3.21717268 9.36366575 -10.83908255 16.72095349 -19 22 C-19.61762207 22.40710205 -20.23524414 22.8142041 -20.87158203 23.23364258 C-27.50527789 27.26877853 -34.32462418 28.77400944 -41.875 30.3125 C-43.09703125 30.57611328 -44.3190625 30.83972656 -45.578125 31.11132812 C-54.46714692 33 -54.46714692 33 -58 33 C-51.57421284 17.87050114 -28.14575647 9.04306716 -14 3 C-9.37897047 1.14411482 -5.06291762 -0.48995977 0 0 Z " fill="#FFFFFF" transform="translate(453,376)"/>
<path d="M0 0 C20.8081814 2.00560785 43.98980399 15.76263354 58 31 C58 31.66 58 32.32 58 33 C53.98694171 32.40197563 49.99389829 31.7146546 46 31 C44.93990723 30.8146167 44.93990723 30.8146167 43.85839844 30.62548828 C25.33260858 27.29568945 12.53552104 19.78510146 1.46875 4.35546875 C0 2 0 2 0 0 Z " fill="#FFFFFF" transform="translate(59,376)"/>
<path d="M0 0 C0.99 0 1.98 0 3 0 C8.54472301 12.72190254 13.75938711 28.44282167 9.25 42.30566406 C6.68263489 48.5074554 3.44152688 54.93487766 -1 60 C-1.66 60 -2.32 60 -3 60 C-3.50868796 55.85518522 -4.00535957 51.70901276 -4.5 47.5625 C-4.71462891 45.81549805 -4.71462891 45.81549805 -4.93359375 44.03320312 C-6.20523788 33.28478253 -6.26860587 24.69136548 -3.5625 14.1875 C-3.33240234 13.26001953 -3.10230469 12.33253906 -2.86523438 11.37695312 C-2.25296112 8.91543719 -1.62836229 6.45744588 -1 4 C-0.66583133 2.66687578 -0.33221205 1.33361315 0 0 Z " fill="#FFFFFF" transform="translate(477,182)"/>
<path d="M0 0 C0.99 0 1.98 0 3 0 C3.81706167 3.0404598 4.6278202 6.08256683 5.4375 9.125 C5.66759766 9.9809375 5.89769531 10.836875 6.13476562 11.71875 C9.45499465 24.22975791 9.07334006 34.75607887 7.5 47.5625 C7.35691406 48.76197266 7.21382812 49.96144531 7.06640625 51.19726562 C6.71562826 54.13210815 6.36005141 57.06628323 6 60 C1.87918055 58.62639352 0.91126461 55.86795814 -1.0625 52.25 C-1.41376953 51.62867188 -1.76503906 51.00734375 -2.12695312 50.3671875 C-8.54943271 38.85771557 -8.62132665 27.13615241 -5.30493164 14.50268555 C-2.36484686 4.22136216 -2.36484686 4.22136216 0 0 Z " fill="#FFFFFF" transform="translate(32,182)"/>
<path d="M0 0 C0 0.99 0 1.98 0 3 C-1.6875 4.61328125 -1.6875 4.61328125 -4 6.3125 C-7.52854616 8.89503146 -7.52854616 8.89503146 -10.921875 11.6484375 C-21.48385543 20.54036119 -35.17985692 20.73229802 -48.3125 21.25 C-49.93952616 21.32658885 -51.5664812 21.4047045 -53.19335938 21.484375 C-57.12831052 21.67381145 -61.06363718 21.84273727 -65 22 C-63.03608493 17.33645987 -59.81174907 16.05157257 -55.375 14.0625 C-54.61010254 13.71405029 -53.84520508 13.36560059 -53.05712891 13.0065918 C-41.69721436 7.9563104 -30.04228131 4.89094579 -17.9375 2.1875 C-16.96151855 1.96811768 -15.98553711 1.74873535 -14.97998047 1.52270508 C-9.87420352 0.43075123 -5.2206811 -0.25343112 0 0 Z " fill="#FFFFFF" transform="translate(426,411)"/>
<path d="M0 0 C7.54370112 -0.1916469 14.43276549 1.34272267 21.75 3 C22.78279587 3.23175934 22.78279587 3.23175934 23.8364563 3.46820068 C38.71525108 6.8462155 52.18554215 11.63337711 65 20 C64.67 20.66 64.34 21.32 64 22 C59.39467228 21.81021683 54.79112411 21.59752157 50.18774414 21.36523438 C48.62780315 21.28955423 47.06756608 21.21970723 45.50708008 21.15625 C31.11144012 20.56395109 19.16921108 18.80611974 8 9 C6.32014703 7.67772676 4.63277827 6.36493774 2.9375 5.0625 C1.625 4.04166667 0.3125 3.02083333 -1 2 C-0.67 1.34 -0.34 0.68 0 0 Z " fill="#FFFFFF" transform="translate(86,411)"/>
<path d="M0 0 C8.09889757 3.4960534 14.40065303 8.19619074 21 14 C21.98226562 14.84820312 22.96453125 15.69640625 23.9765625 16.5703125 C29.39737773 21.33148425 34.41027489 26.34855993 39.125 31.8125 C39.58648437 32.3394043 40.04796875 32.86630859 40.5234375 33.40917969 C43.33088925 36.759941 44.87794024 39.78282034 46 44 C40.58849249 43.50678173 36.45864847 42.08177346 31.6875 39.4375 C31.03595947 39.08179932 30.38441895 38.72609863 29.71313477 38.35961914 C23.97975567 35.14454104 18.83908228 31.46403054 14 27 C13.45214844 26.4946875 12.90429688 25.989375 12.33984375 25.46875 C8.6530098 21.61477958 6.17425653 17.02032431 3.625 12.375 C3.26647949 11.72909912 2.90795898 11.08319824 2.53857422 10.41772461 C0.63408363 6.80831022 -0.45547799 4.09930191 0 0 Z " fill="#FFFFFF" transform="translate(34,330)"/>
<path d="M0 0 C0.7946323 5.42091622 -1.98698276 9.33523156 -4.5625 13.875 C-4.98080078 14.65230469 -5.39910156 15.42960937 -5.83007812 16.23046875 C-10.28695815 24.20593827 -16.01875001 29.83453166 -23.75 34.625 C-24.65081299 35.19238892 -24.65081299 35.19238892 -25.56982422 35.77124023 C-38.89459405 44 -38.89459405 44 -46 44 C-44.61404373 38.48137412 -42.01504976 35.19556568 -38.3125 31.0625 C-37.76577637 30.44205811 -37.21905273 29.82161621 -36.65576172 29.18237305 C-35.114936 27.44453947 -33.5603938 25.72025477 -32 24 C-31.38769531 23.31421875 -30.77539062 22.6284375 -30.14453125 21.921875 C-24.21763684 15.64454725 -8.88967117 0 0 0 Z " fill="#FFFFFF" transform="translate(478,330)"/>
<path d="M0 0 C1.78156585 4.14638243 0.03726561 7.61938131 -1.5 11.5625 C-1.91113037 12.6299646 -1.91113037 12.6299646 -2.33056641 13.71899414 C-8.62087239 29.45896646 -19.25405085 42.1524969 -35 49 C-35.99 49 -36.98 49 -38 49 C-38 49.66 -38 50.32 -38 51 C-38.66 51 -39.32 51 -40 51 C-34.68371091 37.22890819 -27.52113486 23.45123606 -16 14 C-14.62435053 12.77156025 -13.2493154 11.54243207 -11.875 10.3125 C-10.58480278 9.20661667 -9.29310201 8.10248538 -8 7 C-6.49840284 5.68932757 -4.99837043 4.37686003 -3.5 3.0625 C-2.33333333 2.04166667 -1.16666667 1.02083333 0 0 Z " fill="#FFFFFF" transform="translate(398,374)"/>
<path d="M0 0 C4.81269396 3.41263754 9.12679005 6.97259784 13.21875 11.22265625 C15.06238069 13.06224389 16.99914733 14.70890538 19 16.375 C29.05865529 25.2004102 36.76999054 38.30997163 41 51 C40.34 51 39.68 51 39 51 C39 50.34 39 49.68 39 49 C38.27296875 48.88785156 37.5459375 48.77570313 36.796875 48.66015625 C24.97350128 45.86944374 15.43557384 35.58125013 9.18359375 25.71923828 C4.6893305 18.20014395 0 8.85038801 0 0 Z " fill="#FFFFFF" transform="translate(113,374)"/>
<path d="M0 0 C5.5208145 1.8402715 7.4741175 8.04219562 10 13 C16.2526672 26.36293216 16.67383852 38.57274005 12.8515625 52.7421875 C12 55 12 55 10 57 C0.69126788 40.97362614 -5.03403393 19.99134192 -0.47265625 1.625 C-0.23869141 0.820625 -0.23869141 0.820625 0 0 Z " fill="#FFFFFF" transform="translate(459,136)"/>
<path d="M0 0 C0.66 0 1.32 0 2 0 C7.2446151 18.03107339 1.89011555 38.92525323 -6.86328125 55.04296875 C-7.23839844 55.68878906 -7.61351562 56.33460938 -8 57 C-14.14453366 49.52555357 -13.97116996 38.41300182 -13.28564453 29.11865234 C-11.90501336 18.87838115 -6.49076597 7.89598334 0 0 Z " fill="#FFFFFF" transform="translate(51,136)"/>
<path d="M0 0 C-2.13127174 16.51735595 -10.93879283 30.25283651 -20.76416016 43.28369141 C-22.15865373 45.16129704 -22.15865373 45.16129704 -23.73046875 47.98046875 C-24.14941406 48.64691406 -24.56835938 49.31335938 -25 50 C-25.66 50 -26.32 50 -27 50 C-29.21030053 36.5171668 -25.36880856 25.27577904 -17.703125 14.203125 C-6.72340426 0 -6.72340426 0 0 0 Z " fill="#FFFFFF" transform="translate(75,168)"/>
<path d="M0 0 C10.42263351 3.52994718 18.30575568 13.61544979 23.25 23.125 C27.34677974 31.8965284 28.86838505 40.45047642 27 50 C22.97919821 48.65973274 21.85781756 46.07554871 19.75 42.625 C18.94558667 41.33316257 18.14089645 40.04149752 17.3359375 38.75 C16.74184082 37.78900391 16.74184082 37.78900391 16.13574219 36.80859375 C15.15576892 35.24805163 14.13251771 33.71484105 13.1015625 32.1875 C9.5684241 26.94374709 6.70764556 21.56989687 4.125 15.8125 C3.8264209 15.15910645 3.5278418 14.50571289 3.22021484 13.83251953 C1.21996393 9.20336741 0.43592907 5.02436193 0 0 Z " fill="#FFFFFF" transform="translate(437,168)"/>
<path d="M0 0 C0.66 0.66 1.32 1.32 2 2 C-8.68182391 12.91403747 -24.59250157 19.7639878 -39.875 20.0546875 C-42.58433836 20.06159908 -45.29106079 20.04408762 -48 20 C-45.31774105 14.59594021 -42.65313878 11.41107934 -37.4375 8.25 C-36.81979736 7.86585937 -36.20209473 7.48171875 -35.56567383 7.0859375 C-25.24791917 0.91417244 -11.96531377 -1.33450569 0 0 Z " fill="#FFFFFF" transform="translate(212,34)"/>
<path d="M0 0 C7.56484094 2.77139613 15.7356432 6.98718614 19.859375 14.16015625 C20.54 15.67609375 20.54 15.67609375 21.234375 17.22265625 C3.47134026 18.20143572 -13.23142319 12.8164707 -26.765625 1.22265625 C-27.425625 0.23265625 -28.085625 -0.75734375 -28.765625 -1.77734375 C-21.1120063 -5.6041531 -7.77058588 -2.18410535 0 0 Z " fill="#FFFFFF" transform="translate(326.765625,36.77734375)"/>
<path d="M0 0 C1.49686779 18.04557284 -8.18475737 35.56763027 -18.77001953 49.57080078 C-19.17591309 50.04243652 -19.58180664 50.51407227 -20 51 C-20.33 51 -20.66 51 -21 51 C-23.48506022 37.64532679 -22.39759809 26.37256045 -14.875 14.9375 C-3.84570626 0 -3.84570626 0 0 0 Z " fill="#FFFFFF" transform="translate(82,94)"/>
<path d="M0 0 C0.66 0.33 1.32 0.66 2 1 C6.84239079 15.52717236 1.91154934 32.50585642 -4.5625 45.625 C-8.34106404 52.98015583 -8.34106404 52.98015583 -11 56 C-11.66 56 -12.32 56 -13 56 C-13.12254002 49.9955392 -13.11983822 44.0045255 -13 38 C-12.98066406 36.8553125 -12.96132813 35.710625 -12.94140625 34.53125 C-11.94229432 22.11152013 -5.43182469 11.00195345 0 0 Z " fill="#FFFFFF" transform="translate(445,300)"/>
<path d="M0 0 C12.9479763 16.46153247 14.40963543 35.92786409 14 56 C13.34 56 12.68 56 12 56 C2.60105347 43.50956775 -2.17627462 29.50710607 -2.1875 13.9375 C-2.19974609 13.03966797 -2.21199219 12.14183594 -2.22460938 11.21679688 C-2.22654297 10.34990234 -2.22847656 9.48300781 -2.23046875 8.58984375 C-2.23457764 7.80472412 -2.23868652 7.01960449 -2.24291992 6.21069336 C-1.97310575 3.75524885 -1.22414635 2.12777681 0 0 Z " fill="#FFFFFF" transform="translate(66,300)"/>
<path d="M0 0 C9.80559871 7.96704895 19.81336609 17.95390329 22 31 C22.09381234 33.29012477 22.12992912 35.58295988 22.125 37.875 C22.12886719 39.66550781 22.12886719 39.66550781 22.1328125 41.4921875 C22.00933396 44.75347351 21.61663257 47.79938334 21 51 C16.87924403 47.22747693 14.17785461 43.38483894 11.5 38.5 C10.91690063 37.448125 10.91690063 37.448125 10.32202148 36.375 C4.09319764 24.89243431 -0.54934674 13.18432181 0 0 Z " fill="#FFFFFF" transform="translate(430,94)"/>
<path d="M0 0 C-1.68019798 13.40109711 -10.00186681 22.65223813 -19.1875 31.875 C-20.06704346 32.7613916 -20.94658691 33.6477832 -21.8527832 34.56103516 C-28.9051472 41.41673572 -28.9051472 41.41673572 -34 42 C-31.16110499 26.99441208 -24.51473647 14.40226567 -11.875 5.6875 C-11.25496094 5.24599609 -10.63492188 4.80449219 -9.99609375 4.34960938 C-3.8013974 0 -3.8013974 0 0 0 Z " fill="#FFFFFF" transform="translate(121,63)"/>
<path d="M0 0 C5.67238495 1.28062773 9.47748147 3.31772983 14 6.9375 C14.61085449 7.42331543 15.22170898 7.90913086 15.85107422 8.40966797 C21.22758127 12.8673594 24.84911241 17.75399275 28 24 C28.40605469 24.78375 28.81210937 25.5675 29.23046875 26.375 C31.65820362 31.42328624 33.01158545 36.49869268 34 42 C27.1563728 40.0861667 23.53177926 36.26008109 18.625 31.3125 C17.77953613 30.46341064 16.93407227 29.61432129 16.06298828 28.73950195 C8.08583891 20.47518759 1.45427485 11.72287406 0 0 Z " fill="#FFFFFF" transform="translate(391,63)"/>
<path d="M0 0 C7.90253474 2.63417825 13.63981911 14.56018412 17.25 21.6875 C21.3595479 30.08738285 24.63446675 38.95356742 27 48 C26.67 48.66 26.34 49.32 26 50 C13.10596865 40.54085405 2.94368033 28.1902418 0 12 C-0.14200284 7.99349121 -0.11842595 4.00674469 0 0 Z " fill="#FFFFFF" transform="translate(87,345)"/>
<path d="M0 0 C0.66 0 1.32 0 2 0 C3.01703016 15.93347255 -2.85972024 28.48801708 -12.796875 40.625 C-16.16274367 44.25345417 -19.95297081 47.17082681 -24 50 C-25.59634106 46.80731789 -24.01504948 44.29442411 -22.95532227 41.0168457 C-22.64006592 40.08316162 -22.32480957 39.14947754 -22 38.1875 C-21.67894287 37.23641357 -21.35788574 36.28532715 -21.02709961 35.30541992 C-16.87158852 23.35236372 -11.19760603 13.67673929 -3 4 C-2.20335937 2.87271484 -2.20335937 2.87271484 -1.390625 1.72265625 C-0.93171875 1.15417969 -0.4728125 0.58570313 0 0 Z " fill="#FFFFFF" transform="translate(423,345)"/>
<path d="M0 0 C6.25883176 3.99869807 8.33483495 10.10272727 10.25 17 C12.83155338 30.42407755 11.40359486 43.85624578 5 56 C4.34 56 3.68 56 3 56 C2.54460917 53.26765503 2.09184219 50.53511019 1.6484375 47.80078125 C1.19069764 45.11776389 0.69927944 42.45995115 0.1640625 39.79296875 C-1.88637225 29.22372946 -2.12498946 19.69296916 -1 9 C-0.90074219 7.989375 -0.80148437 6.97875 -0.69921875 5.9375 C-0.49172689 3.95548819 -0.25160497 1.97689621 0 0 Z " fill="#FFFFFF" transform="translate(453,255)"/>
<path d="M0 0 C0.33 0 0.66 0 1 0 C3.38528959 18.31350435 2.31398423 34.18363481 -1.64868164 52.17504883 C-2.06301247 54.01758006 -2.06301247 54.01758006 -2 56 C-2.66 56 -3.32 56 -4 56 C-4.81832722 54.10667466 -5.62942268 52.21022267 -6.4375 50.3125 C-7.11619141 48.72888672 -7.11619141 48.72888672 -7.80859375 47.11328125 C-12.08324323 35.94313161 -11.23077332 21.07663094 -7 10 C-5.07839959 6.22326963 -2.99767847 2.99767847 0 0 Z " fill="#FFFFFF" transform="translate(58,255)"/>
<path d="M0 0 C9.42406116 4.20008047 16.12233091 14.27489788 20.06640625 23.4921875 C22.36685433 30.09347329 23.1284806 36.38105604 23.0625 43.375 C23.05347656 44.62023437 23.04445313 45.86546875 23.03515625 47.1484375 C23.02355469 48.08945312 23.01195312 49.03046875 23 50 C22.34 50 21.68 50 21 50 C19.48895336 48.07190448 18.10853051 46.15716804 16.75 44.125 C16.34813477 43.5263916 15.94626953 42.9277832 15.53222656 42.31103516 C14.72245811 41.09832748 13.91610745 39.88333027 13.11328125 38.66601562 C12.18896447 37.28278367 11.22436207 35.92657251 10.25 34.578125 C3.51906252 24.69206058 1.24785332 11.72713766 0 0 Z " fill="#FFFFFF" transform="translate(445,209)"/>
<path d="M0 0 C0.66 0 1.32 0 2 0 C-0.3340946 14.92405944 -3.21853322 27.39493623 -12 40 C-12.639375 40.96035156 -13.27875 41.92070312 -13.9375 42.91015625 C-17.45602861 48.12197675 -17.45602861 48.12197675 -19 50 C-19.66 50 -20.32 50 -21 50 C-21.61680206 34.55710386 -19.37649318 20.89726093 -8.81835938 9.12890625 C-5.94430197 6.02000368 -2.99388024 2.99388024 0 0 Z " fill="#FFFFFF" transform="translate(65,209)"/>
<path d="M0 0 C17.11863827 5.9785266 27.89615252 15.7626521 35.78515625 31.8984375 C37 35 37 35 37 39 C32.45640971 37.4996775 29.00536824 34.95388884 25.3125 32 C24.69818115 31.51015625 24.0838623 31.0203125 23.45092773 30.515625 C13.79553464 22.70169196 1.89190225 13.0097476 0 0 Z " fill="#FFFFFF" transform="translate(415,127)"/>
<path d="M0 0 C1 2 1 2 0.390625 3.9609375 C-6.46336068 18.46697568 -20.42994245 30.79126953 -34 39 C-34.66 39 -35.32 39 -36 39 C-35.50234984 27.8028714 -27.96803844 18.33009502 -20 11 C-13.82215794 6.34656052 -7.1740568 2.851909 0 0 Z " fill="#FFFFFF" transform="translate(96,127)"/>
<path d="M0 0 C10.78402332 0.41477013 20.00959098 5.98836547 27.73046875 13.28515625 C31.68015641 18.00982565 37 25.74210566 37 32 C19.7059585 26.97123616 9.6890694 16.72952279 0 2 C0 1.34 0 0.68 0 0 Z " fill="#FFFFFF" transform="translate(349,42)"/>
<path d="M0 0 C-6.52266561 14.44304528 -17.44100416 25.01575067 -32 31 C-33.65572681 31.38400212 -35.32095193 31.73601804 -37 32 C-33.60538771 20.07745927 -27.81545826 11.47568479 -16.85546875 5.19921875 C-6.25961038 -0.16917866 -6.25961038 -0.16917866 0 0 Z " fill="#FFFFFF" transform="translate(163,42)"/>
<path d="M0 0 C11.05935263 -1.00539569 22.32043254 4.52999894 31 11 C34.79390594 14.90671378 38.26293438 18.78880314 40 24 C23.76207839 23.18810392 10.67826353 13.59191344 -1 3 C-0.67 2.01 -0.34 1.02 0 0 Z " fill="#FFFFFF" transform="translate(392,102)"/>
<path d="M0 0 C0 1.32 0 2.64 0 4 C-2.00114315 5.9859369 -3.89217514 7.6248964 -6.125 9.3125 C-7.06484741 10.03554321 -7.06484741 10.03554321 -8.02368164 10.77319336 C-16.94842875 17.43752417 -28.51707279 24.69593498 -40 24 C-38.72977841 21.60612086 -37.41912241 19.30494405 -36 17 C-35.65710938 16.42507812 -35.31421875 15.85015625 -34.9609375 15.2578125 C-27.93620132 5.42318185 -11.55875688 -0.471786 0 0 Z " fill="#FFFFFF" transform="translate(120,102)"/>
<path d="M0 0 C14.85504926 -0.5089928 27.88440761 0.46288466 39.77734375 10.5 C41 12 41 12 41 15 C26.8347857 15.48017676 13.92985013 13.1379346 2.49609375 4.46484375 C1 3 1 3 0 0 Z " fill="#FFFFFF" transform="translate(329,61)"/>
<path d="M0 0 C0.73605469 0.00451172 1.47210938 0.00902344 2.23046875 0.01367188 C4.02868158 0.02534858 5.82685197 0.04327989 7.625 0.0625 C3.83597432 7.25068378 -2.88178185 10.45480903 -10.4375 12.875 C-18.07219917 14.90296697 -25.51119046 15.18732237 -33.375 15.0625 C-32.81931971 11.53050475 -31.79085517 10.17524588 -28.9375 8.0625 C-19.99311382 1.71953314 -10.76202432 -0.12649757 0 0 Z " fill="#FFFFFF" transform="translate(175.375,60.9375)"/>
<path d="M0 0 C0.66 0.66 1.32 1.32 2 2 C-7.74424583 11.44484163 -18.00938472 16.06746923 -31.625 16.125 C-33.08359017 16.09358421 -34.5421403 16.05583292 -36 16 C-34.02491218 9.95193315 -30.42853136 7.9317291 -25 5 C-16.9292605 1.38760102 -8.904208 -0.63601486 0 0 Z " fill="#FFFFFF" transform="translate(145,79)"/>
<path d="M0 0 C6.07104399 2.06381099 12.21584395 4.83236455 16.9453125 9.25 C18.19140625 11.94140625 18.19140625 11.94140625 18.9453125 14.25 C7.68185532 14.92281713 -3.56872171 12.59079628 -13.0546875 6.25 C-15.35616753 4.03597621 -17.13665437 1.82420236 -19.0546875 -0.75 C-13.81186918 -3.37140916 -5.4878334 -1.34739644 0 0 Z " fill="#FFFFFF" transform="translate(384.0546875,80.75)"/>
</svg>

